<?xml version="1.0" encoding="utf-8"?>
<svg version="1.1" id="Layer_1" x="0px" y="0px" viewBox="0 0 64 64" style="enable-background:new 0 0 512 512;" width="64px" height="64px" xmlns="http://www.w3.org/2000/svg">
  <path style="fill:#FF7452;" d="M 41.663 24.082 C 41.533 23.927 41.313 23.855 41.103 23.898 C 40.892 23.942 40.73 24.093 40.688 24.285 L 40.2 26.511 L 34.201 16.264 C 34.106 16.102 33.92 16 33.717 16 C 33.716 16 33.715 16 33.715 16 C 33.511 16.001 33.323 16.104 33.23 16.268 L 24.926 30.774 L 23.915 27.883 C 23.851 27.7 23.675 27.566 23.463 27.542 C 23.252 27.517 23.043 27.605 22.929 27.768 C 20.61 31.088 19.434 33.822 19.434 35.893 C 19.434 39.298 20.926 42.403 23.635 44.634 C 26.271 46.805 29.852 48 33.717 48 C 37.582 48 41.162 46.805 43.798 44.634 C 46.508 42.403 48 39.299 48 35.893 C 48 33.086 45.868 29.112 41.663 24.082 Z"/>
  <path style="fill:#E24642;" d="M 36.932 46.747 C 33.066 46.747 29.486 45.551 26.85 43.38 C 24.14 41.149 22.648 38.045 22.648 34.639 C 22.648 33.174 23.237 31.378 24.403 29.277 L 23.915 27.883 C 23.851 27.7 23.675 27.566 23.463 27.542 C 23.251 27.517 23.043 27.605 22.929 27.768 C 20.61 31.088 19.433 33.822 19.433 35.893 C 19.433 39.298 20.926 42.403 23.635 44.634 C 26.271 46.805 29.852 48 33.717 48 C 36.551 48 39.231 47.357 41.5 46.158 C 40.055 46.545 38.518 46.747 36.932 46.747 Z"/>
  <path style="fill:#FFD652;" d="M 24.657 38.136 C 24.657 33.618 33.717 24.413 33.717 24.413 C 33.717 24.413 42.776 33.618 42.776 38.136 C 42.776 42.655 38.72 46.318 33.717 46.318 C 28.713 46.318 24.657 42.655 24.657 38.136 Z"/>
  <path style="fill:#FB9D46;" d="M 35.908 44.338 C 30.905 44.338 26.849 40.675 26.849 36.157 C 26.849 33.014 31.231 27.605 33.901 24.602 C 33.783 24.479 33.717 24.413 33.717 24.413 C 33.717 24.413 24.657 33.618 24.657 38.136 C 24.657 42.655 28.713 46.318 33.717 46.318 C 36.779 46.318 39.484 44.946 41.124 42.847 C 39.649 43.786 37.85 44.338 35.908 44.338 Z"/>
  <g transform="matrix(0.069207, 0, 0, 0.0625, 16, 16)">
    <path style="fill:#E24642;" d="M213.773,312.478c-4.373,0-7.918,3.545-7.918,7.918v34.309h-26.392v-34.309 c0-4.373-3.545-7.918-7.918-7.918c-4.373,0-7.918,3.545-7.918,7.918v84.454c0,4.373,3.545,7.918,7.918,7.918 c4.373,0,7.918-3.545,7.918-7.918V370.54h26.392v34.309c0,4.373,3.545,7.918,7.918,7.918c4.373,0,7.918-3.545,7.918-7.918v-84.454 C221.691,316.023,218.146,312.478,213.773,312.478z"/>
    <path style="fill:#E24642;" d="M275.002,312.478h-35.893c-4.373,0-7.918,3.545-7.918,7.918v84.454c0,4.373,3.545,7.918,7.918,7.918 h35.893c4.373,0,7.918-3.545,7.918-7.918v-84.454C282.92,316.023,279.375,312.478,275.002,312.478z M267.085,396.932h-20.058 v-68.619h20.058V396.932z"/>
    <path style="fill:#E24642;" d="M340.454,312.478h-42.227c-4.373,0-7.918,3.545-7.918,7.918c0,4.373,3.545,7.918,7.918,7.918h13.196 v76.536c0,4.373,3.545,7.918,7.918,7.918s7.918-3.545,7.918-7.918v-76.536h13.196c4.373,0,7.918-3.545,7.918-7.918 C348.371,316.023,344.826,312.478,340.454,312.478z"/>
  </g>
  <g transform="matrix(0.069207, 0, 0, 0.0625, 16, 16)"/>
  <g transform="matrix(0.069207, 0, 0, 0.0625, 16, 16)"/>
  <g transform="matrix(0.069207, 0, 0, 0.0625, 16, 16)"/>
  <g transform="matrix(0.069207, 0, 0, 0.0625, 16, 16)"/>
  <g transform="matrix(0.069207, 0, 0, 0.0625, 16, 16)"/>
  <g transform="matrix(0.069207, 0, 0, 0.0625, 16, 16)"/>
  <g transform="matrix(0.069207, 0, 0, 0.0625, 16, 16)"/>
  <g transform="matrix(0.069207, 0, 0, 0.0625, 16, 16)"/>
  <g transform="matrix(0.069207, 0, 0, 0.0625, 16, 16)"/>
  <g transform="matrix(0.069207, 0, 0, 0.0625, 16, 16)"/>
  <g transform="matrix(0.069207, 0, 0, 0.0625, 16, 16)"/>
  <g transform="matrix(0.069207, 0, 0, 0.0625, 16, 16)"/>
  <g transform="matrix(0.069207, 0, 0, 0.0625, 16, 16)"/>
  <g transform="matrix(0.069207, 0, 0, 0.0625, 16, 16)"/>
  <g transform="matrix(0.069207, 0, 0, 0.0625, 16, 16)"/>
</svg>